<svg width="48" height="64" viewBox="0 0 48 64" fill="none" xmlns="http://www.w3.org/2000/svg">
<path d="M0 0H48V40C48 53.2548 37.2548 64 24 64C10.7452 64 0 53.2548 0 40V0Z" fill="#00C88C"/>
<path fill-rule="evenodd" clip-rule="evenodd" d="M33.5394 31.8661C34.3271 31.8661 34.9657 31.2245 34.9657 30.433C34.9657 29.6416 34.3271 29 33.5394 29C32.7516 29 32.113 29.6416 32.113 30.433C32.113 31.2245 32.7516 31.8661 33.5394 31.8661Z" fill="white"/>
<path fill-rule="evenodd" clip-rule="evenodd" d="M13 35.8669C13 35.4695 13.1369 35.1332 13.4108 34.858C13.6846 34.5829 14.0194 34.4453 14.4149 34.4453C14.8105 34.4453 15.1452 34.5829 15.4191 34.858C15.6929 35.1332 15.8299 35.4695 15.8299 35.8669V39.9482C15.8299 41.0793 16.0429 42.1417 16.4689 43.1353C16.8949 44.1288 17.4806 45.0001 18.2261 45.7491C18.9716 46.4981 19.8389 47.0866 20.8278 47.5146C21.8167 47.9426 22.8741 48.1566 24 48.1566C25.1259 48.1566 26.1833 47.9426 27.1722 47.5146C28.1611 47.0866 29.0284 46.4981 29.7739 45.7491C30.5194 45.0001 31.1051 44.1288 31.5311 43.1353C31.9571 42.1417 32.1701 41.0793 32.1701 39.9482V35.8669C32.1701 35.4695 32.3071 35.1332 32.5809 34.858C32.8548 34.5829 33.1895 34.4453 33.5851 34.4453C33.9806 34.4453 34.3154 34.5829 34.5892 34.858C34.8631 35.1332 35 35.4695 35 35.8669V39.9482C35 41.4768 34.7109 42.9136 34.1328 44.2588C33.5546 45.6039 32.7711 46.7733 31.7822 47.7668C30.7932 48.7604 29.6293 49.5476 28.2905 50.1285C26.9516 50.7093 25.5214 50.9998 24 50.9998C22.4786 50.9998 21.0484 50.7093 19.7095 50.1285C18.3707 49.5476 17.2068 48.7604 16.2178 47.7668C15.2289 46.7733 14.4454 45.6039 13.8672 44.2588C13.2891 42.9136 13 41.4768 13 39.9482V35.8669Z" fill="white"/>
<path fill-rule="evenodd" clip-rule="evenodd" d="M14.4263 31.8661C15.2141 31.8661 15.8527 31.2245 15.8527 30.433C15.8527 29.6416 15.2141 29 14.4263 29C13.6386 29 13 29.6416 13 30.433C13 31.2245 13.6386 31.8661 14.4263 31.8661Z" fill="white"/>
</svg>
